<?xml version="1.0" encoding="UTF-8" ?>
<!DOCTYPE svg PUBLIC "-//W3C//DTD SVG 1.1//EN" "http://www.w3.org/Graphics/SVG/1.1/DTD/svg11.dtd">
<svg width="368pt" height="370pt" viewBox="0 0 368 370" version="1.1" xmlns="http://www.w3.org/2000/svg">
<g id="#ffffffff">
</g>
<g id="#999999ff">
<path fill="#999999" opacity="1.00" d=" M 258.43 21.69 C 266.79 19.72 276.00 21.90 282.51 27.51 C 290.03 33.78 293.67 44.19 291.77 53.79 C 289.53 66.71 277.09 76.81 263.95 76.16 C 250.41 76.10 238.19 64.62 237.27 51.11 C 235.75 37.81 245.36 24.49 258.43 21.69 Z" />
<path fill="#999999" opacity="1.00" d=" M 120.52 131.68 C 132.65 130.23 145.25 132.89 155.67 139.31 C 167.88 146.69 176.99 159.00 180.45 172.85 C 183.95 186.58 181.98 201.65 174.86 213.93 C 167.17 227.50 153.45 237.50 138.14 240.55 C 124.64 243.33 110.09 240.88 98.36 233.59 C 85.25 225.66 75.76 212.02 72.96 196.95 C 70.20 182.71 73.25 167.42 81.49 155.46 C 90.27 142.40 104.87 133.44 120.52 131.68 Z" />
<path fill="#999999" opacity="1.00" d=" M 237.10 186.36 C 255.47 186.39 273.83 186.36 292.20 186.38 C 292.28 217.45 283.45 248.51 266.77 274.74 C 248.92 302.95 222.45 325.70 191.70 338.75 C 171.32 347.47 149.15 351.86 127.00 351.86 C 127.01 333.46 126.98 315.05 127.02 296.65 C 155.07 296.71 182.90 285.51 203.05 266.00 C 224.62 245.54 237.18 216.08 237.10 186.36 Z" />
</g>
</svg>
