<svg width="24" height="24" viewBox="0 0 24 24" fill="none" xmlns="http://www.w3.org/2000/svg">
<path d="M13 21H9V9H13V11C13.4211 10.4643 13.9555 10.0284 14.565 9.72356C15.1744 9.41875 15.8438 9.25259 16.525 9.237C17.7164 9.24361 18.8565 9.72242 19.6954 10.5684C20.5343 11.4144 21.0035 12.5586 21 13.75V21H17V14.25C16.9226 13.7096 16.6527 13.2153 16.2398 12.8581C15.8269 12.5009 15.2989 12.3048 14.753 12.306C14.5087 12.3137 14.2684 12.3707 14.0466 12.4736C13.8249 12.5765 13.6262 12.7231 13.4624 12.9046C13.2987 13.0862 13.1734 13.2989 13.0939 13.5301C13.0144 13.7613 12.9825 14.0062 13 14.25V21ZM7 21H3V9H7V21ZM5 7C4.46957 7 3.96086 6.78929 3.58579 6.41421C3.21071 6.03914 3 5.53043 3 5C3 4.46957 3.21071 3.96086 3.58579 3.58579C3.96086 3.21071 4.46957 3 5 3C5.53043 3 6.03914 3.21071 6.41421 3.58579C6.78929 3.96086 7 4.46957 7 5C7 5.53043 6.78929 6.03914 6.41421 6.41421C6.03914 6.78929 5.53043 7 5 7Z" fill="white"/>
</svg>
